<svg width="58" height="61" viewBox="0 0 58 61" fill="none" xmlns="http://www.w3.org/2000/svg">
<path fill-rule="evenodd" clip-rule="evenodd" d="M34.3799 1.566L42.7668 6.31663C42.7668 6.31663 42.8079 6.34032 42.843 6.35809C42.8606 6.36994 42.8841 6.38178 42.9075 6.39956L51.2182 11.1028C51.2182 11.1028 51.2534 11.1146 51.271 11.1265C51.271 11.1265 51.2827 11.1324 51.2886 11.1383C51.3941 11.1976 51.4995 11.2627 51.5992 11.322C51.6988 11.3812 51.8043 11.4523 51.9157 11.5234C52.0622 11.6181 52.0974 11.8077 52.0036 11.9499C51.945 12.0387 51.8453 12.0861 51.7457 12.0861H28.519C25.9754 12.0861 23.549 12.5837 21.3336 13.4781C19.0361 14.4081 16.9672 15.7823 15.2324 17.4765C13.4976 19.1765 12.1027 21.2023 11.1533 23.4533C10.239 25.6212 9.72906 28.0025 9.72906 30.4963C9.72906 32.9901 10.2331 35.3713 11.1533 37.5393C12.1027 39.7902 13.4976 41.822 15.2324 43.5161C16.9672 45.2161 19.0361 46.5844 21.3336 47.5144C23.5432 48.4148 25.9696 48.9064 28.519 48.9064C31.0685 48.9064 33.4891 48.4089 35.7045 47.5144C38.0019 46.5844 40.0708 45.2102 41.7998 43.5161C43.5346 41.816 44.9295 39.7902 45.879 37.5393C46.7581 35.4601 47.2563 33.1855 47.2973 30.8043H39.2093C39.1683 32.1134 38.8869 33.3573 38.4005 34.5065C37.8554 35.7919 37.0642 36.9469 36.0796 37.9125C35.0949 38.878 33.9169 39.6599 32.6041 40.1871C31.344 40.6965 29.9608 40.9808 28.5132 40.9808C27.0655 40.9808 25.6824 40.6965 24.4223 40.1871C23.1094 39.654 21.9314 38.878 20.9468 37.9125C19.0127 36.017 17.8112 33.3929 17.8112 30.4963C17.8112 29.0746 18.0984 27.7241 18.62 26.4861C19.1651 25.2007 19.9563 24.0456 20.9409 23.0801C22.875 21.1846 25.5534 20.0058 28.5073 20.0058H56.663C56.8388 20.0058 56.9795 20.142 56.9795 20.3138V20.3493V20.379C56.9912 20.456 57.0029 20.533 57.0088 20.61C57.0146 20.6929 57.0205 20.7758 57.0205 20.8588V40.116C57.0205 41.1822 56.8623 42.2188 56.5751 43.2081C56.282 44.2091 55.8483 45.151 55.3033 46.0158C55.2974 46.0395 55.2857 46.0632 55.274 46.0809C55.274 46.0809 55.2681 46.0928 55.2622 46.0987C54.6937 46.9872 54.0021 47.7928 53.2168 48.4859C52.4314 49.1789 51.5464 49.7713 50.5911 50.2333L42.761 54.6641L34.2568 59.4799C33.3132 60.0189 32.3228 60.4039 31.3147 60.6527C30.2714 60.9074 29.2106 61.02 28.1557 60.9844C27.0831 60.9489 26.0282 60.7712 25.0142 60.4572C24.0003 60.1433 23.0333 59.6872 22.1483 59.1067L22.1424 59.1008L14.5819 54.824C14.5291 54.8003 14.4764 54.7766 14.4236 54.7529C14.365 54.7233 14.3123 54.6937 14.2537 54.6641L5.74952 49.8483C4.86453 49.3448 4.07331 48.7465 3.38173 48.0653C2.6667 47.3663 2.06303 46.5785 1.56486 45.7374C1.10185 44.9496 0.738472 44.1084 0.480594 43.2436C0.228576 42.3847 0.0761929 41.4902 0.0351668 40.5899C0.023445 40.5129 0.0117233 40.4359 0.00586238 40.3589C1.50409e-06 40.2759 -0.00585938 40.193 -0.00585938 40.1101V20.8528C-0.00585938 19.7866 0.152384 18.75 0.439567 17.7608C0.732611 16.7656 1.16046 15.8179 1.70552 14.9531C1.71138 14.9294 1.7231 14.9116 1.73482 14.8879L1.74654 14.8701C2.30919 13.9935 2.98905 13.1997 3.76269 12.5067C4.54218 11.8136 5.42132 11.2213 6.37078 10.7592L14.2419 6.29886C14.3181 6.25739 14.3709 6.22777 14.4119 6.20408C14.4412 6.18631 14.4881 6.16262 14.5643 6.12708C14.5995 6.1093 14.6229 6.09746 14.6405 6.08561C14.6463 6.08561 14.6581 6.07969 14.6639 6.07376C14.6874 6.06192 14.7049 6.05599 14.7108 6.05007C14.7401 6.0323 14.7811 6.00861 14.8104 5.99676C14.8163 5.99676 14.8222 5.99084 14.828 5.98491C14.8397 5.97899 14.8456 5.97306 14.8573 5.96714L22.7812 1.48307C22.8223 1.45937 22.8516 1.4416 22.875 1.42976C22.8809 1.42976 22.8867 1.42383 22.8926 1.42383C22.916 1.41199 22.9453 1.40014 22.9688 1.38829C23.8303 0.920337 24.7271 0.576775 25.6355 0.345759C26.6025 0.114743 27.5637 0.00219727 28.519 0.00219727C29.4685 0.00219727 30.4062 0.120667 31.3088 0.339836C32.2114 0.559004 33.0847 0.890719 33.911 1.32313C33.9697 1.34683 34.0224 1.37052 34.081 1.39421C34.1455 1.42383 34.2041 1.45345 34.2568 1.48307C34.2686 1.48899 34.292 1.50676 34.3272 1.52453C34.3448 1.53638 34.3623 1.54823 34.3858 1.56007L34.3799 1.566Z" fill="url(#paint0_linear_1_1136)"/>
<defs>
<linearGradient id="paint0_linear_1_1136" x1="7.15028" y1="9.07697" x2="50.1582" y2="51.6304" gradientUnits="userSpaceOnUse">
<stop stop-color="#01F9E6"/>
<stop offset="0.09" stop-color="#00EDE9"/>
<stop offset="0.24" stop-color="#00CEF2"/>
<stop offset="0.42" stop-color="#00A2FF"/>
<stop offset="0.44" stop-color="#0D99FF"/>
<stop offset="0.54" stop-color="#4574FF"/>
<stop offset="0.63" stop-color="#7355FF"/>
<stop offset="0.72" stop-color="#973DFF"/>
<stop offset="0.8" stop-color="#B12CFF"/>
<stop offset="0.88" stop-color="#C122FF"/>
<stop offset="0.94" stop-color="#C71FFF"/>
</linearGradient>
</defs>
</svg>
